Coordinates
version=1
nRows=49
nColumns=12
inDegrees=yes

Units are S.I. units (second, meters, Newtons, ...)
Angles are in degrees

endheader
time	SC_y	SC_z	SC_x	AC_y	AC_z	AC_x	GH_y	GH_z	GH_yy	EL_x	PS_y
       0.0              -37.15          18.56          45.19           66.7          1.231         -5.431         -92.72           21.9         -10.15          87.05          75.36
   0.04838              -37.15          18.56          45.19           66.7          1.228          -5.43         -92.71          21.91         -10.14          87.04          75.37
   0.09676              -37.15          18.56          45.18           66.7          1.226         -5.428         -92.69          21.92         -10.12          87.03          75.38
    0.1451              -37.15          18.56          45.18          66.69          1.224         -5.427         -92.67          21.93          -10.1          87.01          75.39
    0.1935              -37.15          18.56          45.17          66.69          1.221         -5.426         -92.65          21.94         -10.08           87.0           75.4
    0.2419              -37.14          18.56          45.17          66.68          1.219         -5.424         -92.62          21.95         -10.06          86.98          75.41
    0.2903              -37.14          18.56          45.16          66.68          1.216         -5.423          -92.6          21.96         -10.04          86.97          75.43
    0.3386              -37.14          18.56          45.16          66.68          1.213         -5.421         -92.57          21.97         -10.02          86.95          75.44
     0.387              -37.14          18.56          45.15          66.67          1.209         -5.419         -92.55          21.99         -9.991          86.93          75.45
    0.4354              -37.13          18.56          45.15          66.67          1.206         -5.417         -92.52           22.0         -9.963          86.91          75.47
    0.4838              -37.13          18.56          45.14          66.66          1.202         -5.415         -92.49          22.02         -9.934          86.89          75.49
    0.5322              -37.13          18.56          45.13          66.65          1.198         -5.413         -92.45          22.04         -9.902          86.87           75.5
    0.5805              -37.13          18.56          45.13          66.65          1.194         -5.411         -92.42          22.05         -9.868          86.84          75.52
    0.6289              -37.12          18.56          45.12          66.64          1.189         -5.408         -92.38          22.07         -9.831          86.82          75.54
    0.6773              -37.12          18.56          45.11          66.63          1.184         -5.405         -92.33           22.1         -9.792          86.79          75.57
    0.7257              -37.11          18.56           45.1          66.63          1.178         -5.402         -92.29          22.12         -9.748          86.76          75.59
    0.7741              -37.11          18.57          45.09          66.62          1.172         -5.399         -92.23          22.14         -9.701          86.72          75.62
    0.8224               -37.1          18.57          45.08          66.61          1.166         -5.395         -92.18          22.17          -9.65          86.69          75.65
    0.8708               -37.1          18.57          45.06           66.6          1.158         -5.391         -92.12           22.2         -9.594          86.65          75.68
    0.9192              -37.09          18.57          45.05          66.59          1.151         -5.387         -92.05          22.23         -9.533           86.6          75.71
    0.9676              -37.09          18.57          45.04          66.57          1.142         -5.382         -91.98          22.27         -9.466          86.55          75.75
     1.016              -37.08          18.57          45.02          66.56          1.132         -5.377          -91.9          22.31         -9.392           86.5          75.79
     1.064              -37.07          18.57           45.0          66.54          1.122         -5.371         -91.81          22.35          -9.31          86.44          75.84
     1.113              -37.06          18.57          44.98          66.53           1.11         -5.365         -91.71           22.4          -9.22          86.38          75.89
     1.161              -37.05          18.57          44.96          66.51          1.097         -5.358         -91.61          22.46         -9.119           86.3          75.95
     1.209              -37.04          18.57          44.93          66.49          1.083          -5.35         -91.49          22.52         -9.007          86.22          76.01
     1.258              -37.03          18.57          44.91          66.46          1.067         -5.341         -91.35          22.59         -8.881          86.13          76.08
     1.306              -37.02          18.57          44.87          66.44          1.049         -5.332          -91.2          22.66          -8.74          86.03          76.16
     1.355               -37.0          18.58          44.84          66.41          1.028          -5.32         -91.02          22.75          -8.58          85.91          76.25
     1.403              -36.99          18.58           44.8          66.37          1.005         -5.308         -90.83          22.85         -8.398          85.78          76.35
     1.451              -36.97          18.58          44.75          66.33          0.978         -5.293          -90.6          22.96         -8.191          85.63          76.47
       1.5              -36.94          18.58           44.7          66.29         0.9475         -5.276         -90.35          23.08         -7.953          85.46          76.61
     1.548              -36.92          18.59          44.64          66.24         0.9122         -5.257         -90.05          23.23         -7.679          85.27          76.76
     1.596              -36.89          18.59          44.57          66.18         0.8712         -5.235         -89.71           23.4          -7.36          85.04          76.94
     1.645              -36.85          18.59          44.49          66.11         0.8232         -5.209          -89.3           23.6         -6.987          84.77          77.15
     1.693              -36.81           18.6          44.39          66.03         0.7666         -5.178         -88.83          23.84         -6.547          84.45           77.4
     1.742              -36.76           18.6          44.27          65.93         0.6994         -5.141         -88.26          24.12         -6.024          84.07           77.7
      1.79               -36.7          18.61          44.13          65.81         0.6188         -5.097         -87.59          24.46         -5.397          83.62          78.05
     1.838              -36.63          18.61          43.96          65.67         0.5213         -5.044         -86.77          24.87         -4.639          83.08          78.48
     1.887              -36.54          18.62          43.76           65.5         0.4022         -4.979         -85.77          25.37         -3.713          82.41           79.0
     1.935              -36.43          18.64           43.5          65.28         0.2552         -4.899         -84.54          25.98          -2.57          81.59          79.65
     1.984              -36.29          18.65          43.19          65.02        0.07193           -4.8          -83.0          26.75         -1.145          80.56          80.46
     2.032              -36.12          18.67          42.79          64.68         -0.159         -4.674         -81.06          27.71         0.6509          79.27          81.47
      2.08               -35.9          18.69          42.28          64.25        -0.4525         -4.514         -78.59          28.94          2.934          77.62          82.76
     2.129              -35.62          18.72          41.63          63.71        -0.8282         -4.309         -75.44          30.51          5.855          75.52          84.41
     2.177              -35.26          18.75           40.8          63.01          -1.31         -4.047         -71.39          32.53          9.604          72.82          86.53
     2.225              -34.81           18.8          39.74          62.11         -1.926         -3.711         -66.22          35.11          14.39          69.37          89.24
     2.274              -34.23          18.86           38.4          60.98           -2.7         -3.289         -59.72          38.35          20.42          65.03          92.64
     2.322              -33.53          18.93          36.77          59.61         -3.644         -2.775          -51.8           42.3          27.75          59.74          96.79
